<?xml version="1.0" encoding="UTF-8" standalone="yes"?>
<!DOCTYPE svg PUBLIC "-//W3C//DTD SVG 1.0//EN" "http://www.w3.org/TR/2001/REC-SVG-20010904/DTD/svg10.dtd">
<svg height="659.61945" id="svg2" style="display: inline" version="1.1" width="643.45685" xmlns="http://www.w3.org/2000/svg" xmlns:cc="http://creativecommons.org/ns#" xmlns:dc="http://purl.org/dc/elements/1.1/" xmlns:rdf="http://www.w3.org/1999/02/22-rdf-syntax-ns#" xmlns:svg="http://www.w3.org/2000/svg" xmlns:xlink="http://www.w3.org/1999/xlink">
	<defs id="defs4">
		<clipPath id="clipPath3690">
			<path d="m 32.324881,709.92047 l 228.294479,0 l 1.01015,-124.24876 l 546.49253,6.06091 L 788.92914,47.2604 L 580.83771,37.158875 L 34.345187,36.148722 L 32.324881,709.92047 z" id="path3692" style="fill: #000000; fill-opacity: 1; stroke: #000000; stroke-width: 1px; stroke-opacity: 1; stroke-linecap: butt; stroke-linejoin: miter" />
		</clipPath>
	</defs>
	<metadata id="metadata7">
		<rdf:RDF >
			<cc:Work rdf:about="">
				<dc:format >
image/svg+xml</dc:format>
				<dc:type rdf:resource="http://purl.org/dc/dcmitype/StillImage" />
				<dc:title  />
			</cc:Work>
		</rdf:RDF>
	</metadata>
	<g id="layer1" style="display: inline" transform="translate(-58.089,-40.699485)">
		<image clip-path="url(#clipPath3690)" height="1128.5621" id="image2886" transform="matrix(0.99985247,-0.01717653,0.01717653,0.99985247,-6.3330274,7.2767581)" width="787.42859" x="26.285711" xlink:href="file:///homes/pc2210/d/projects/labmap/base.tif" y="29.505047" />
	</g>
	<g id="layer2" style="display: inline" transform="translate(-58.089,-40.699485)">
		<path d="m 171.726,97.770684 l 0,453.555496 M 58.589,699.81894 l 83.84251,0 l 0,-148.79676 l 61.6193,0.304 l 169.70563,3.4e-4 l 0,-246.47722 l 327.28943,0 l 0,-211.121883 l -175.76655,0 l 0,-52.527932 l -220.21325,0 l 0,56.568542 l -133.34007,0 l -7e-5,-51.51778 l -113.13693,0 l 0,653.568693 z" id="path4185" style="fill: none; stroke: #000000; stroke-width: 1px; stroke-opacity: 1; stroke-linecap: butt; stroke-linejoin: miter" />
	</g>
	<g id="layer11" style="display: inline" transform="translate(-58.089,-40.699485)">
		<path d="m 406.6875,136.15625 c 58.21524,30.62518 99.34115,88.63378 105.625,156.5625 l 13.1875,0 c -5.43482,-64.59544 -39.52291,-121.05439 -89.53125,-156.5625 l -29.28125,0 z" id="path3994" style="opacity: 0.69921875; fill: #629fd7; fill-opacity: 1; fill-rule: evenodd; display: inline" />
		<path d="m 473.6875,136.15625 c 45.25473,39.11562 75.4337,94.41289 80.96875,156.5625 l 16.125,0 c -5.44002,-61.13407 -33.65222,-115.95919 -76.375,-156.5625 l -20.71875,0 z" id="path3992" style="opacity: 0.69921875; fill: #629fd7; fill-opacity: 1; fill-rule: evenodd; display: inline" />
		<path d="m 535.90625,136.15625 c 35.8352,43.39185 58.59538,97.4728 62.5,156.5625 l 15.1875,0 C 610.04869,234.42346 589.6026,180.65982 557,136.15625 l -21.09375,0 z" id="path3990" style="opacity: 0.69921875; fill: #629fd7; fill-opacity: 1; fill-rule: evenodd; display: inline" />
		<path d="m 288.5625,143.5625 c -32.84853,4.03409 -62.87561,16.75717 -87.53125,35.6875 l 0,17.625 c 23.84245,-20.59442 54.09244,-34.4992 87.53125,-38.65625 l 0,-14.65625 z" id="path3988" style="opacity: 0.69921875; fill: #629fd7; fill-opacity: 1; fill-rule: evenodd; display: inline" />
		<path d="m 336.4375,143.90625 l 0,15.125 c 40.71534,6.49401 76.31236,27.50969 100.78125,57.3125 L 449.34375,206.25 C 421.92489,173.19329 381.98086,150.19195 336.4375,143.90625 z" id="path3986" style="opacity: 0.69921875; fill: #629fd7; fill-opacity: 1; fill-rule: evenodd; display: inline" />
		<path d="m 594.40625,152.3125 c 23.45625,41.92476 37.86873,89.61427 40.53125,140.40625 l 13.59375,0 l 0,-18.40625 c -4.80552,-43.7617 -18.1448,-84.97473 -38.3125,-122 l -15.8125,0 z" id="path3984" style="opacity: 0.69921875; fill: #629fd7; fill-opacity: 1; fill-rule: evenodd; display: inline" />
		<path d="m 462.09375,223.8125 l -14.25,7.125 c 11.83919,18.40275 19.7881,39.34759 22.75,61.78125 l 16.15625,0 C 483.75588,267.69818 475.1043,244.3264 462.09375,223.8125 z" id="path3978" style="opacity: 0.69921875; fill: #629fd7; fill-opacity: 1; fill-rule: evenodd; display: inline" />
		<path d="m 288.53125,227.84375 c -39.86415,9.74462 -69.3125,44.14104 -69.3125,85.09375 c 0,48.53654 41.35914,87.90625 92.40625,87.90625 c 20.18515,0 38.85919,-6.14954 54.0625,-16.59375 l 0,-17.59375 c -14.04788,12.78686 -33.08376,20.65625 -54.0625,20.65625 c -43.19371,0 -78.21875,-33.30562 -78.21875,-74.375 c 0,-33.43464 23.22028,-61.70782 55.15625,-71.0625 l 0,-14.03125 c -0.01,0.002 -0.0213,-0.002 -0.0312,0 z" id="path3976" style="opacity: 0.69921875; fill: #629fd7; fill-opacity: 1; fill-rule: evenodd; display: inline" />
		<path d="m 336.4375,228.3125 l 0,14.125 c 24.38614,7.75703 43.41689,26.61193 50.4375,50.28125 l 14.71875,0 C 393.87458,261.56411 368.70588,236.83843 336.4375,228.3125 z" id="path3974" style="opacity: 0.69921875; fill: #629fd7; fill-opacity: 1; fill-rule: evenodd; display: inline" />
		<path d="m 201.03125,427.96875 l 0,17.59375 c 30.20111,23.18807 68.45937,37.0625 110.09375,37.0625 c 19.04585,0 37.37176,-2.91448 54.5625,-8.28125 l 0,-15.9375 c -17.4763,6.16511 -36.35308,9.5 -56.0625,9.5 c -41.75907,0 -79.83433,-15.1104 -108.59375,-39.9375 z" id="path3968" style="opacity: 0.69921875; fill: #629fd7; fill-opacity: 1; fill-rule: evenodd; display: inline" />
		<path d="m 201.03125,475.9375 l 0,18.09375 c 32.38785,19.69693 70.41251,31.03125 111.09375,31.03125 c 18.49073,0 36.44711,-2.34368 53.5625,-6.75 l 0,-16.5 c -17.05308,4.63185 -35.01488,7.09375 -53.5625,7.09375 c -41.07948,0 -79.26825,-12.13609 -111.09375,-32.96875 z" id="path3966" style="opacity: 0.69921875; fill: #629fd7; fill-opacity: 1; fill-rule: evenodd; display: inline" />
		<path d="m 312.75,277.375 c -19.60611,0 -35.5,15.22232 -35.5,34 c 0,18.77768 15.89389,34 35.5,34 c 19.60611,0 35.5,-15.22232 35.5,-34 c 0,-18.77768 -15.89389,-34 -35.5,-34 z m -0.84375,14 c 0.35793,-0.0173 0.73131,0 1.09375,0 c 11.59798,0 21,8.95431 21,20 c 0,11.04569 -9.40202,20 -21,20 c -11.59798,0 -21,-8.95431 -21,-20 c 0,-10.70052 8.81048,-19.46434 19.90625,-20 z" id="path4107" style="opacity: 0.69921875; fill: #629fd7; fill-opacity: 1; fill-rule: evenodd; display: inline" />
		<path d="m 143.875,322.78125 l -0.21875,28.1875 c 25.03654,29.30831 63.39963,48.47284 106.65625,49.71875 l 0.34375,-13.65625 l 0.15625,-0.25 c -46.91553,-0.5439 -87.40053,-26.46449 -106.9375,-64 z m 163.59375,51.40625 c -14.69003,7.16582 -31.11898,11.54427 -48.53125,12.4375 l 0.15625,14.03125 c 17.13219,-0.47194 33.48361,-3.7332 48.5625,-9.34375 l -0.1875,-17.125 z" id="path4115" style="opacity: 0.69921875; fill: #629fd7; fill-opacity: 1; fill-rule: evenodd; display: inline" transform="translate(58.089,40.699485)" />
		<path d="m 288.71875,183.4375 c -36.14347,5.98027 -67.30694,26.06421 -87.21875,54.21875 l 0.8125,27.28125 c 15.51398,-33.97587 47.5446,-59.30509 86.25,-66.46875 l 0.15625,-15.03125 z" id="path4153" style="opacity: 0.69921875; fill: #629fd7; fill-opacity: 1; fill-rule: evenodd" />
		<path d="m 337.5625,184.09375 l -0.0937,15.1875 c 46.76838,10.29476 83.06072,47.26652 90.8125,93.5 l 14.6875,-0.0625 c -7.64821,-54.37846 -50.38698,-97.93369 -105.40625,-108.625 z" id="path4131" style="opacity: 0.69921875; fill: #629fd7; fill-opacity: 1; fill-rule: evenodd" />
		<rect height="28.5" id="rect4646" style="opacity: 0.69921875; fill: #629fd7; fill-opacity: 1; fill-rule: evenodd; display: inline" width="64.5" x="60.089001" y="87.112183" />
		<rect height="28.5" id="rect4646-1" style="opacity: 0.69921875; fill: #629fd7; fill-opacity: 1; fill-rule: evenodd; display: inline" width="79.75" x="60.089001" y="157.61218" />
		<rect height="28.5" id="rect4646-1-6" style="opacity: 0.69921875; fill: #629fd7; fill-opacity: 1; fill-rule: evenodd; display: inline" width="79.75" x="60.089001" y="228.86218" />
		<rect height="28.5" id="rect4646-1-1" style="opacity: 0.69921875; fill: #629fd7; fill-opacity: 1; fill-rule: evenodd; display: inline" width="79.75" x="60.089001" y="298.61218" />
		<rect height="28.5" id="rect4646-1-5" style="opacity: 0.69921875; fill: #629fd7; fill-opacity: 1; fill-rule: evenodd; display: inline" width="79.75" x="60.089001" y="376.86218" />
		<rect height="28.5" id="rect4646-1-2" style="opacity: 0.69921875; fill: #629fd7; fill-opacity: 1; fill-rule: evenodd; display: inline" width="79.75" x="60.089001" y="445.36218" />
		<rect height="28.5" id="rect4646-1-9" style="opacity: 0.69921875; fill: #629fd7; fill-opacity: 1; fill-rule: evenodd; display: inline" width="79.75" x="60.089001" y="513.36218" />
		<rect height="28.5" id="rect4646-1-68" style="opacity: 0.69921875; fill: #629fd7; fill-opacity: 1; fill-rule: evenodd; display: inline" width="65.25" x="60.089001" y="581.61218" />
		<rect height="28.5" id="rect4646-1-64" style="opacity: 0.69921875; fill: #629fd7; fill-opacity: 1; fill-rule: evenodd; display: inline" width="49" x="60.089001" y="649.61218" />
	</g>
	<g id="locPaths" style="display: inline">
		<path d="m 302.20046,341.82003 c -5.75764,3.41116 -11.88124,6.11807 -18.22307,8.13086 c -6.35137,2.01582 -12.92162,3.33543 -19.56234,3.96899 c -6.63299,0.63283 -13.33628,0.58122 -19.96196,-0.14471 c -6.63311,-0.72674 -13.18844,-2.12929 -19.51759,-4.1975 c -6.34054,-2.07192 -12.4541,-4.8119 -18.19147,-8.20969 c -5.71151,-3.38247 -11.05022,-7.41685 -15.86893,-12.09305 c -6.10437,-5.5123 -10.59593,-10.87956 -13.39579,-16.4108 c -2.05282,-4.05213 -6.58889,-13.58123 -7.92343,-17.91771 c -1.33672,-4.34359 -3.00624,-15.51574 -3.56629,-20.01816 c -1.07665,-9.30772 0.22587,-11.89613 2.3858,-20.31159 c 1.02697,-4.27952 4.20547,-13.38202 5.95592,-17.37636 c 3.69455,-8.24427 4.43607,-8.24866 10.05661,-14.4671 c 2.94184,-3.23558 11.79258,-12.25896 15.19428,-15.01756 c 7.05204,-5.63292 11.59478,-6.59038 19.3768,-9.71283" id="fusion0923" style="opacity: 0.69921875; fill: none; stroke: #000000; stroke-opacity: 1" />
		<path d="m 287.5,197.11944 c 0,0 6.22431,2.20863 14.35441,7.70551 c 3.91592,2.64762 8.27398,6.0581 12.5916,10.35207 c 3.5788,3.55918 7.12981,7.72537 10.37825,12.56726 c 2.85434,4.25448 5.47507,9.03067 7.67574,14.37516" id="ray1620" style="fill: none; stroke: #000000; stroke-width: 1px; stroke-opacity: 1; stroke-linecap: butt; stroke-linejoin: miter" />
		<path d="m 374.75,243.36945 c 0,0 -0.68593,-6.29588 -4.03629,-15.70517 c -1.55787,-4.37521 -3.69183,-9.42357 -6.60078,-14.82514 c -2.36177,-4.38552 -5.23439,-9.00387 -8.72433,-13.68381 c -3.04494,-4.08321 -6.5598,-8.21331 -10.61529,-12.27657 c -3.6285,-3.63544 -7.68977,-7.21737 -12.23445,-10.66434 c -4.1062,-3.11439 -8.60703,-6.11861 -13.53984,-8.95257 c -4.47685,-2.57201 -9.30952,-5.00378 -14.52592,-7.25041 c -4.74926,-2.04543 -11.3166,-5.18739 -16.7231,-6.89199" id="ray0715" style="fill: none; stroke: #000000; stroke-width: 1px; stroke-opacity: 1; stroke-linecap: butt; stroke-linejoin: miter" />
		<path d="m 460.5,242.61945 c 0,0 -0.86894,-6.09992 -3.44531,-15.96295 c -1.17687,-4.50532 -2.71,-9.79585 -4.67932,-15.64883 c -1.60373,-4.76643 -3.49673,-9.90587 -5.72217,-15.29804 c -1.97594,-4.78765 -4.21395,-9.77454 -6.74424,-14.87647 c -2.33645,-4.71105 -4.9221,-9.52019 -7.78076,-14.36113 c -2.6975,-4.56804 -5.63809,-9.16439 -8.84175,-13.73336 c -3.06114,-4.36569 -6.36246,-8.70639 -9.9214,-12.97349 c -3.42418,-4.10553 -7.08684,-8.14293 -11.00351,-12.06893 c -3.77851,-3.78751 -7.79343,-7.47134 -12.05869,-11.01264 c -4.11389,-3.41561 -8.46067,-6.69862 -13.05285,-9.81416" id="visual0717" style="fill: none; stroke: #000000; stroke-width: 1px; stroke-opacity: 1; stroke-linecap: butt; stroke-linejoin: miter" />
		<path d="m 548,242.36945 c 0,0 -0.82892,-7.34973 -2.38283,-16.87893 c -0.84984,-5.21157 -1.91653,-11.07502 -3.18306,-16.7446 c -1.34332,-6.01328 -2.91145,-11.80846 -4.68411,-16.37647" id="matrix2023" style="fill: none; stroke: #000000; stroke-width: 1px; stroke-opacity: 1; stroke-linecap: butt; stroke-linejoin: miter" />
	</g>
	<g id="overlay">
		<image height="32" id="fusion09" width="16" x="294.20046" xlink:href="https://www.doc.ic.ac.uk/internal/photosearch/pics/pics10/jhs110.jpeg" y="325.82003" />
		<image height="32" id="fusion10" width="16" x="275.97739" xlink:href="https://www.doc.ic.ac.uk/internal/photosearch/pics/pics10/jhs110.jpeg" y="333.95089" />
		<image height="32" id="fusion11" width="16" x="256.41505" xlink:href="https://www.doc.ic.ac.uk/internal/photosearch/pics/pics10/jhs110.jpeg" y="337.91988" />
		<image height="32" id="fusion12" width="16" x="236.45309" xlink:href="https://www.doc.ic.ac.uk/internal/photosearch/pics/pics10/jhs110.jpeg" y="337.77517" />
		<image height="32" id="fusion13" width="16" x="216.9355" xlink:href="https://www.doc.ic.ac.uk/internal/photosearch/pics/pics10/jhs110.jpeg" y="333.57767" />
		<image height="32" id="fusion14" width="16" x="198.74403" xlink:href="https://www.doc.ic.ac.uk/internal/photosearch/pics/pics10/jhs110.jpeg" y="325.36798" />
		<image height="32" id="fusion15" width="16" x="182.8751" xlink:href="https://www.doc.ic.ac.uk/internal/photosearch/pics/pics10/jhs110.jpeg" y="313.27493" />
		<image height="32" id="fusion16" width="16" x="169.47931" xlink:href="https://www.doc.ic.ac.uk/internal/photosearch/pics/pics10/jhs110.jpeg" y="296.86413" />
		<image height="32" id="fusion17" width="16" x="161.55588" xlink:href="https://www.doc.ic.ac.uk/internal/photosearch/pics/pics10/jhs110.jpeg" y="278.94642" />
		<image height="32" id="fusion18" width="16" x="157.98959" xlink:href="https://www.doc.ic.ac.uk/internal/photosearch/pics/pics10/jhs110.jpeg" y="258.92826" />
		<image height="32" id="fusion19" width="16" x="160.37539" xlink:href="https://www.doc.ic.ac.uk/internal/photosearch/pics/pics10/jhs110.jpeg" y="238.61667" />
		<image height="32" id="fusion20" width="16" x="166.33131" xlink:href="https://www.doc.ic.ac.uk/internal/photosearch/pics/pics10/jhs110.jpeg" y="221.24031" />
		<image height="32" id="fusion21" width="16" x="176.38792" xlink:href="https://www.doc.ic.ac.uk/internal/photosearch/pics/pics10/jhs110.jpeg" y="206.77321" />
		<image height="32" id="fusion22" width="16" x="191.5822" xlink:href="https://www.doc.ic.ac.uk/internal/photosearch/pics/pics10/jhs110.jpeg" y="191.75565" />
		<image height="32" id="fusion23" width="16" x="210.959" xlink:href="https://www.doc.ic.ac.uk/internal/photosearch/pics/pics10/jhs110.jpeg" y="182.04282" />
		<image height="32" id="ray16" width="16" x="279.5" xlink:href="https://www.doc.ic.ac.uk/internal/photosearch/pics/pics10/jhs110.jpeg" y="181.11944" />
		<image height="32" id="ray17" width="16" x="293.85441" xlink:href="https://www.doc.ic.ac.uk/internal/photosearch/pics/pics10/jhs110.jpeg" y="188.82495" />
		<image height="32" id="ray18" width="16" x="306.44601" xlink:href="https://www.doc.ic.ac.uk/internal/photosearch/pics/pics10/jhs110.jpeg" y="199.17702" />
		<image height="32" id="ray19" width="16" x="316.82426" xlink:href="https://www.doc.ic.ac.uk/internal/photosearch/pics/pics10/jhs110.jpeg" y="211.74428" />
		<image height="32" id="ray20" width="16" x="324.5" xlink:href="https://www.doc.ic.ac.uk/internal/photosearch/pics/pics10/jhs110.jpeg" y="226.11944" />
		<image height="32" id="ray07" width="16" x="366.75" xlink:href="https://www.doc.ic.ac.uk/internal/photosearch/pics/pics10/jhs110.jpeg" y="227.36945" />
		<image height="32" id="ray08" width="16" x="362.71371" xlink:href="https://www.doc.ic.ac.uk/internal/photosearch/pics/pics10/jhs110.jpeg" y="211.66428" />
		<image height="32" id="ray09" width="16" x="356.11293" xlink:href="https://www.doc.ic.ac.uk/internal/photosearch/pics/pics10/jhs110.jpeg" y="196.83914" />
		<image height="32" id="ray10" width="16" x="347.3886" xlink:href="https://www.doc.ic.ac.uk/internal/photosearch/pics/pics10/jhs110.jpeg" y="183.15533" />
		<image height="32" id="ray11" width="16" x="336.77331" xlink:href="https://www.doc.ic.ac.uk/internal/photosearch/pics/pics10/jhs110.jpeg" y="170.87876" />
		<image height="32" id="ray12" width="16" x="324.53886" xlink:href="https://www.doc.ic.ac.uk/internal/photosearch/pics/pics10/jhs110.jpeg" y="160.21442" />
		<image height="32" id="ray13" width="16" x="310.99902" xlink:href="https://www.doc.ic.ac.uk/internal/photosearch/pics/pics10/jhs110.jpeg" y="151.26185" />
		<image height="32" id="ray14" width="16" x="296.4731" xlink:href="https://www.doc.ic.ac.uk/internal/photosearch/pics/pics10/jhs110.jpeg" y="144.01144" />
		<image height="32" id="ray15" width="16" x="279.75" xlink:href="https://www.doc.ic.ac.uk/internal/photosearch/pics/pics10/jhs110.jpeg" y="137.11945" />
		<image height="32" id="visual07" width="16" x="452.5" xlink:href="https://www.doc.ic.ac.uk/internal/photosearch/pics/pics10/jhs110.jpeg" y="226.61945" />
		<image height="32" id="visual08" width="16" x="449.05469" xlink:href="https://www.doc.ic.ac.uk/internal/photosearch/pics/pics10/jhs110.jpeg" y="210.6565" />
		<image height="32" id="visual09" width="16" x="444.37537" xlink:href="https://www.doc.ic.ac.uk/internal/photosearch/pics/pics10/jhs110.jpeg" y="195.00767" />
		<image height="32" id="visual10" width="16" x="438.6532" xlink:href="https://www.doc.ic.ac.uk/internal/photosearch/pics/pics10/jhs110.jpeg" y="179.70963" />
		<image height="32" id="visual11" width="16" x="431.90896" xlink:href="https://www.doc.ic.ac.uk/internal/photosearch/pics/pics10/jhs110.jpeg" y="164.83316" />
		<image height="32" id="visual12" width="16" x="424.1282" xlink:href="https://www.doc.ic.ac.uk/internal/photosearch/pics/pics10/jhs110.jpeg" y="150.47203" />
		<image height="32" id="visual13" width="16" x="415.28645" xlink:href="https://www.doc.ic.ac.uk/internal/photosearch/pics/pics10/jhs110.jpeg" y="136.73867" />
		<image height="32" id="visual14" width="16" x="405.36505" xlink:href="https://www.doc.ic.ac.uk/internal/photosearch/pics/pics10/jhs110.jpeg" y="123.76518" />
		<image height="32" id="visual15" width="16" x="394.36154" xlink:href="https://www.doc.ic.ac.uk/internal/photosearch/pics/pics10/jhs110.jpeg" y="111.69625" />
		<image height="32" id="visual16" width="16" x="382.30285" xlink:href="https://www.doc.ic.ac.uk/internal/photosearch/pics/pics10/jhs110.jpeg" y="100.68361" />
		<image height="32" id="visual17" width="16" x="369.25" xlink:href="https://www.doc.ic.ac.uk/internal/photosearch/pics/pics10/jhs110.jpeg" y="90.86945" />
		<image height="32" id="matrix20" width="16" x="540" xlink:href="https://www.doc.ic.ac.uk/internal/photosearch/pics/pics10/jhs110.jpeg" y="226.36945" />
		<image height="32" id="matrix21" width="16" x="537.61717" xlink:href="https://www.doc.ic.ac.uk/internal/photosearch/pics/pics10/jhs110.jpeg" y="209.49052" />
		<image height="32" id="matrix22" width="16" x="534.43411" xlink:href="https://www.doc.ic.ac.uk/internal/photosearch/pics/pics10/jhs110.jpeg" y="192.74592" />
		<image height="32" id="matrix23" width="16" x="529.75" xlink:href="https://www.doc.ic.ac.uk/internal/photosearch/pics/pics10/jhs110.jpeg" y="176.36945" />
	</g>
	<!-- 
	Generated using the Perl SVG Module V2.50
	by Ronan Oger
	Info: http://www.roitsystems.com/
 -->
</svg>